<svg width="31" height="26" viewBox="0 0 31 26" fill="none" xmlns="http://www.w3.org/2000/svg">
<path d="M25.782 14.0447C24.9538 11.3728 23.8941 8.7782 22.6149 6.29054C21.8641 4.82736 20.9768 3.37499 19.9273 2.10638C19.0783 1.0795 17.9266 0.264874 16.5686 0.16366C13.9075 -0.0328715 11.8361 2.54661 10.7433 4.65245C10.0581 5.94675 9.61555 7.35549 9.4374 8.80909C9.33324 9.75048 9.41185 10.7518 9.86584 11.5989C10.6195 13.009 12.2851 13.4099 13.767 13.3765C14.7365 13.3459 15.6964 13.1748 16.6167 12.8685C16.6189 12.8736 16.6216 12.8785 16.6246 12.8832C16.7621 13.1682 16.883 13.461 16.997 13.7558C17.2051 14.308 17.3595 14.8789 17.4579 15.4607C17.6763 16.7201 17.7563 17.9996 17.6966 19.2764C17.562 22.4071 16.5794 25.4485 15.0857 28.1891C14.1473 29.9107 12.9779 31.4663 11.7624 33.0041C10.6372 34.4231 9.48653 35.8293 8.21595 37.1215C7.19104 38.1641 6.06393 39.1428 4.74717 39.8002C3.5611 40.3898 2.31607 40.5283 1.01306 40.3122C-0.270289 40.0979 -1.45046 39.5653 -2.37416 38.6367C-3.16716 37.8398 -3.7204 36.8296 -4.1341 35.7939C-4.48884 34.9095 -4.7974 33.9406 -5.35849 33.1564C-5.55503 32.8803 -5.80168 32.6307 -6.15445 32.5914C-6.52295 32.5511 -6.80005 32.9108 -6.96023 33.1889C-7.6019 34.2983 -7.53115 35.6622 -7.31399 36.8778C-7.06636 38.2663 -6.55537 39.6213 -5.91664 40.8752C-5.29265 42.0996 -4.46231 43.2424 -3.68208 44.3715C-2.97199 45.4112 -2.15559 46.3742 -1.24607 47.2448C1.19129 49.5301 4.08477 51.2735 7.24411 52.3605C8.40356 52.77 9.60071 53.0636 10.818 53.2371C14.3988 53.7372 16.714 53.862 20.2339 52.7123C23.2497 51.7297 25.2592 50.2449 26.0846 49.2347C27.2176 47.8482 29.9042 44.342 30.258 38.4952C30.8584 28.6126 26.8314 17.3563 25.782 14.0447Z" fill="#6CB4B8"/>
</svg>
