<svg width="30" height="30" viewBox="0 0 30 30" fill="none" xmlns="http://www.w3.org/2000/svg">
<path d="M19.375 13.7498C20.4105 13.7498 21.25 12.9103 21.25 11.8748C21.25 10.8392 20.4105 9.99976 19.375 9.99976C18.3395 9.99976 17.5 10.8392 17.5 11.8748C17.5 12.9103 18.3395 13.7498 19.375 13.7498Z" fill="#323232"/>
<path d="M10.625 13.7498C11.6605 13.7498 12.5 12.9103 12.5 11.8748C12.5 10.8392 11.6605 9.99976 10.625 9.99976C9.58947 9.99976 8.75 10.8392 8.75 11.8748C8.75 12.9103 9.58947 13.7498 10.625 13.7498Z" fill="#323232"/>
<path d="M15 19.9998C13.15 19.9998 11.5625 18.9873 10.6875 17.4998H8.6C9.6 20.0623 12.0875 21.8748 15 21.8748C17.9125 21.8748 20.4 20.0623 21.4 17.4998H19.3125C18.4375 18.9873 16.85 19.9998 15 19.9998ZM14.9875 2.49976C8.0875 2.49976 2.5 8.09976 2.5 14.9998C2.5 21.8998 8.0875 27.4998 14.9875 27.4998C21.9 27.4998 27.5 21.8998 27.5 14.9998C27.5 8.09976 21.9 2.49976 14.9875 2.49976ZM15 24.9998C9.475 24.9998 5 20.5248 5 14.9998C5 9.47476 9.475 4.99976 15 4.99976C20.525 4.99976 25 9.47476 25 14.9998C25 20.5248 20.525 24.9998 15 24.9998Z" fill="#323232"/>
</svg>